<svg version="1.1" xmlns="http://www.w3.org/2000/svg" xmlns:xlink="http://www.w3.org/1999/xlink" width="467.1279296875" height="270"><defs/><g><g transform="translate(-246,-262) scale(1,1)"><rect fill="#C0C0C0" stroke="none" x="263" y="279" width="447.1279296875" height="250" opacity="0.2"/></g><g transform="translate(-246,-262) scale(1,1)"><rect fill="#ffffff" stroke="none" x="256" y="272" width="447.1279296875" height="250"/></g><g transform="translate(-246,-262) scale(1,1)"><path fill="none" stroke="#000000" d="M 256 272 L 703.1279296875 272 L 703.1279296875 522 L 256 522 L 256 272 Z Z" stroke-miterlimit="10"/></g><g transform="translate(-246,-262) scale(1,1)"><path fill="none" stroke="#000000" d="M 256 297 L 703.1279296875 297" stroke-miterlimit="10"/></g><g transform="translate(-246,-262) scale(1,1)"><path fill="none" stroke="#000000" d="M 256 395 L 703.1279296875 395" stroke-miterlimit="10"/></g><g transform="translate(-246,-262) scale(1,1)"><g><path fill="none" stroke="none"/><text fill="#002133" stroke="none" font-family="Arial" font-size="13px" font-style="normal" font-weight="bold" text-decoration="none" x="461.495361328125" y="291.5">Signal</text></g></g><g transform="translate(-246,-262) scale(1,1)"><g><path fill="none" stroke="none"/><text fill="#002133" stroke="none" font-family="Arial" font-size="13px" font-style="normal" font-weight="normal" text-decoration="none" x="261" y="314.5">+receivers: List[((sender_id, receiver_id), receeiver_weakref)]</text></g></g><g transform="translate(-246,-262) scale(1,1)"><g><path fill="none" stroke="none"/><text fill="#002133" stroke="none" font-family="Arial" font-size="13px" font-style="normal" font-weight="normal" text-decoration="none" x="261" y="329.5">+providing_args: Set()</text></g></g><g transform="translate(-246,-262) scale(1,1)"><g><path fill="none" stroke="none"/><text fill="#002133" stroke="none" font-family="Arial" font-size="13px" font-style="normal" font-weight="normal" text-decoration="none" x="261" y="344.5">+lock: threading.lock</text></g></g><g transform="translate(-246,-262) scale(1,1)"><g><path fill="none" stroke="none"/><text fill="#002133" stroke="none" font-family="Arial" font-size="13px" font-style="normal" font-weight="normal" text-decoration="none" x="261" y="359.5">+use_caching: bool</text></g></g><g transform="translate(-246,-262) scale(1,1)"><g><path fill="none" stroke="none"/><text fill="#002133" stroke="none" font-family="Arial" font-size="13px" font-style="normal" font-weight="normal" text-decoration="none" x="261" y="374.5">+sender_receivers_cache: weakref.WeakKeyDictionary()</text></g></g><g transform="translate(-246,-262) scale(1,1)"><g><path fill="none" stroke="none"/><text fill="#002133" stroke="none" font-family="Arial" font-size="13px" font-style="normal" font-weight="normal" text-decoration="none" x="261" y="389.5">-_dead_receivers: bool</text></g></g><g transform="translate(-246,-262) scale(1,1)"><g><path fill="none" stroke="none"/><text fill="#002133" stroke="none" font-family="Arial" font-size="13px" font-style="normal" font-weight="normal" text-decoration="none" x="261" y="412.5">+connect(receiver, sender = None, weak = True, dispatch_uid = None)</text></g></g><g transform="translate(-246,-262) scale(1,1)"><g><path fill="none" stroke="none"/><text fill="#002133" stroke="none" font-family="Arial" font-size="13px" font-style="normal" font-weight="normal" text-decoration="none" x="261" y="427.5">+disconnect(receiver = None, sender = None, dispatch_uid = None)</text></g></g><g transform="translate(-246,-262) scale(1,1)"><g><path fill="none" stroke="none"/><text fill="#002133" stroke="none" font-family="Arial" font-size="13px" font-style="normal" font-weight="normal" text-decoration="none" x="261" y="442.5">+has_listeners(sender = None)</text></g></g><g transform="translate(-246,-262) scale(1,1)"><g><path fill="none" stroke="none"/><text fill="#002133" stroke="none" font-family="Arial" font-size="13px" font-style="normal" font-weight="normal" text-decoration="none" x="261" y="457.5">+send(sender, **named)</text></g></g><g transform="translate(-246,-262) scale(1,1)"><g><path fill="none" stroke="none"/><text fill="#002133" stroke="none" font-family="Arial" font-size="13px" font-style="normal" font-weight="normal" text-decoration="none" x="261" y="472.5">+send_robust(sender, **named)</text></g></g><g transform="translate(-246,-262) scale(1,1)"><g><path fill="none" stroke="none"/><text fill="#002133" stroke="none" font-family="Arial" font-size="13px" font-style="normal" font-weight="normal" text-decoration="none" x="261" y="487.5">-_clear_dead_receivers()</text></g></g><g transform="translate(-246,-262) scale(1,1)"><g><path fill="none" stroke="none"/><text fill="#002133" stroke="none" font-family="Arial" font-size="13px" font-style="normal" font-weight="normal" text-decoration="none" x="261" y="502.5">-_live_receivers(sender)</text></g></g><g transform="translate(-246,-262) scale(1,1)"><g><path fill="none" stroke="none"/><text fill="#002133" stroke="none" font-family="Arial" font-size="13px" font-style="normal" font-weight="normal" text-decoration="none" x="261" y="517.5">-_remove_receiver(receiver = None)</text></g></g></g></svg>