<svg version="1.1" xmlns="http://www.w3.org/2000/svg" xmlns:xlink="http://www.w3.org/1999/xlink" width="180" height="270"><defs/><g><g transform="translate(-246,-262) scale(1,1)"><rect fill="#C0C0C0" stroke="none" x="263" y="279" width="160" height="250" opacity="0.2"/></g><g transform="translate(-246,-262) scale(1,1)"><rect fill="#ffffff" stroke="none" x="256" y="272" width="160" height="250"/></g><g transform="translate(-246,-262) scale(1,1)"><path fill="none" stroke="#000000" d="M 256 272 L 416 272 L 416 522 L 256 522 L 256 272 Z Z" stroke-miterlimit="10"/></g><g transform="translate(-246,-262) scale(1,1)"><path fill="none" stroke="#000000" d="M 256 297 L 416 297" stroke-miterlimit="10"/></g><g transform="translate(-246,-262) scale(1,1)"><path fill="none" stroke="#000000" d="M 256 395 L 416 395" stroke-miterlimit="10"/></g><g transform="translate(-246,-262) scale(1,1)"><g><path fill="none" stroke="none"/><text fill="#002133" stroke="none" font-family="Arial" font-size="13px" font-style="normal" font-weight="bold" text-decoration="none" x="317.931396484375" y="291.5">Signal</text></g></g><g transform="translate(-246,-262) scale(1,1)"><g><path fill="none" stroke="none"/><text fill="#002133" stroke="none" font-family="Arial" font-size="13px" font-style="normal" font-weight="normal" text-decoration="none" x="261" y="314.5">+receivers</text></g></g><g transform="translate(-246,-262) scale(1,1)"><g><path fill="none" stroke="none"/><text fill="#002133" stroke="none" font-family="Arial" font-size="13px" font-style="normal" font-weight="normal" text-decoration="none" x="261" y="329.5">+providing_args</text></g></g><g transform="translate(-246,-262) scale(1,1)"><g><path fill="none" stroke="none"/><text fill="#002133" stroke="none" font-family="Arial" font-size="13px" font-style="normal" font-weight="normal" text-decoration="none" x="261" y="344.5">+lock</text></g></g><g transform="translate(-246,-262) scale(1,1)"><g><path fill="none" stroke="none"/><text fill="#002133" stroke="none" font-family="Arial" font-size="13px" font-style="normal" font-weight="normal" text-decoration="none" x="261" y="359.5">+use_caching</text></g></g><g transform="translate(-246,-262) scale(1,1)"><g><path fill="none" stroke="none"/><text fill="#002133" stroke="none" font-family="Arial" font-size="13px" font-style="normal" font-weight="normal" text-decoration="none" x="261" y="374.5">+sender_receivers_cache</text></g></g><g transform="translate(-246,-262) scale(1,1)"><g><path fill="none" stroke="none"/><text fill="#002133" stroke="none" font-family="Arial" font-size="13px" font-style="normal" font-weight="normal" text-decoration="none" x="261" y="389.5">-_dead_receivers</text></g></g><g transform="translate(-246,-262) scale(1,1)"><g><path fill="none" stroke="none"/><text fill="#002133" stroke="none" font-family="Arial" font-size="13px" font-style="normal" font-weight="normal" text-decoration="none" x="261" y="412.5">+connect()</text></g></g><g transform="translate(-246,-262) scale(1,1)"><g><path fill="none" stroke="none"/><text fill="#002133" stroke="none" font-family="Arial" font-size="13px" font-style="normal" font-weight="normal" text-decoration="none" x="261" y="427.5">+disconnect()</text></g></g><g transform="translate(-246,-262) scale(1,1)"><g><path fill="none" stroke="none"/><text fill="#002133" stroke="none" font-family="Arial" font-size="13px" font-style="normal" font-weight="normal" text-decoration="none" x="261" y="442.5">+has_listeners()</text></g></g><g transform="translate(-246,-262) scale(1,1)"><g><path fill="none" stroke="none"/><text fill="#002133" stroke="none" font-family="Arial" font-size="13px" font-style="normal" font-weight="normal" text-decoration="none" x="261" y="457.5">+send()</text></g></g><g transform="translate(-246,-262) scale(1,1)"><g><path fill="none" stroke="none"/><text fill="#002133" stroke="none" font-family="Arial" font-size="13px" font-style="normal" font-weight="normal" text-decoration="none" x="261" y="472.5">+send_robust()</text></g></g><g transform="translate(-246,-262) scale(1,1)"><g><path fill="none" stroke="none"/><text fill="#002133" stroke="none" font-family="Arial" font-size="13px" font-style="normal" font-weight="normal" text-decoration="none" x="261" y="487.5">-_clear_dead_receivers()</text></g></g><g transform="translate(-246,-262) scale(1,1)"><g><path fill="none" stroke="none"/><text fill="#002133" stroke="none" font-family="Arial" font-size="13px" font-style="normal" font-weight="normal" text-decoration="none" x="261" y="502.5">-_live_receivers()</text></g></g><g transform="translate(-246,-262) scale(1,1)"><g><path fill="none" stroke="none"/><text fill="#002133" stroke="none" font-family="Arial" font-size="13px" font-style="normal" font-weight="normal" text-decoration="none" x="261" y="517.5">-_remove_receiver()</text></g></g></g></svg>